inDegrees=no
num_controls=7
num_derivatives=13
num_iterations=38
num_multipliers=7
num_parameters=0
num_slacks=7
num_states=26
objective=0.428150
objective_accelerations=0.056202
objective_balance=0.001113
objective_effort=0.014878
objective_height=0.349988
objective_ligament=0.005969
solver_duration=563.730635
status=Solve_Succeeded
success=true
DataType=double
version=3
OpenSimVersion=4.5
endheader
time	/jointset/ground_pelvis/pelvis_tilt/value	/jointset/ground_pelvis/pelvis_tx/value	/jointset/ground_pelvis/pelvis_ty/value	/jointset/hip_l/hip_flexion_l/value	/jointset/hip_l/hip_adduction_l/value	/jointset/hip_l/hip_rotation_l/value	/jointset/back/lumbar_extension/value	/jointset/patellofemoral_l/patellar_flexion_l/value	/jointset/knee_l/knee_flexion_l/value	/jointset/knee_l/knee_adduction_l/value	/jointset/knee_l/knee_rotation_l/value	/jointset/ankle_l/ankle_angle_l/value	/jointset/subtalar_l/subtalar_angle_l/value	/jointset/ground_pelvis/pelvis_tilt/speed	/jointset/ground_pelvis/pelvis_tx/speed	/jointset/ground_pelvis/pelvis_ty/speed	/jointset/hip_l/hip_flexion_l/speed	/jointset/hip_l/hip_adduction_l/speed	/jointset/hip_l/hip_rotation_l/speed	/jointset/back/lumbar_extension/speed	/jointset/patellofemoral_l/patellar_flexion_l/speed	/jointset/knee_l/knee_flexion_l/speed	/jointset/knee_l/knee_adduction_l/speed	/jointset/knee_l/knee_rotation_l/speed	/jointset/ankle_l/ankle_angle_l/speed	/jointset/subtalar_l/subtalar_angle_l/speed	/forceset/tau_hip_flexion_l	/forceset/tau_hip_adduction_l	/forceset/tau_hip_rotation_l	/forceset/tau_knee_flexion_l	/forceset/tau_ankle_angle_l	/forceset/tau_subtalar_angle_l	/forceset/tau_lumbar_extension	lambda_cid13_p0	lambda_cid13_p1	lambda_cid13_p2	lambda_cid13_p3	lambda_cid13_p4	lambda_cid13_p5	lambda_cid14_p0	/jointset/ground_pelvis/pelvis_tilt/accel	/jointset/ground_pelvis/pelvis_tx/accel	/jointset/ground_pelvis/pelvis_ty/accel	/jointset/hip_l/hip_flexion_l/accel	/jointset/hip_l/hip_adduction_l/accel	/jointset/hip_l/hip_rotation_l/accel	/jointset/back/lumbar_extension/accel	/jointset/patellofemoral_l/patellar_flexion_l/accel	/jointset/knee_l/knee_flexion_l/accel	/jointset/knee_l/knee_adduction_l/accel	/jointset/knee_l/knee_rotation_l/accel	/jointset/ankle_l/ankle_angle_l/accel	/jointset/subtalar_l/subtalar_angle_l/accel	gamma_cid13_p0	gamma_cid13_p1	gamma_cid13_p2	gamma_cid13_p3	gamma_cid13_p4	gamma_cid13_p5	gamma_cid14_p0
1	-0.4331480399851969	0.00285163128530889	0.6094682074006592	1.640507681971058	-0.3500733113119697	0.1316828626590542	-0.4362471693451887	1.471174732784607	1.471174732784578	0.04634013743261168	-0.1743528680338048	0.4351575952543212	0.2437009820756972	-0.1369086966240131	0.004707598408770365	0.03513267318632145	0.01318914158771141	-0.0009856944847429351	-0.05715918488676774	-0.001839387361800226	-0.1570729502492967	-0.1570729502492936	-0.005695728863912131	-0.0001179193675445502	-0.04672640196007934	-0.02930392187941004	-0.2273149301571847	0.08762882634766153	-0.009253487459365602	-0.2912647252077597	-0.01361228704538318	-0.01735921396781553	0.2016523772061261	-40.21656607114448	25.36883551930732	-16.64810090141512	2.729116142223525	-539.0873703746938	-28.06341454477046	-0.0239601762543175	1.40586472814118	0.2745146883067704	1.924528982939365	-6.408372147754771	-0.2236820921614663	-1.542063378070216	-0.01686811815083953	-5.466311632755642	-5.466311632755628	-0.8340837636310044	-0.04153256088902924	-0.935966261589757	-0.9110201489126404	-5.150368128335369e-09	-1.064071197062821e-07	-4.148740691166512e-08	-2.746396217214723e-09	-7.53395939118833e-09	-1.244989921534951e-07	2.687427956993644e-09
1.01	-0.4344473493598272	0.002912455652789258	0.6099156051285118	1.640319909288596	-0.3500938051292609	0.131035768853414	-0.4362655521190266	1.469330934086151	1.469330934086143	0.04624071334728524	-0.1743547087472083	0.4346435185442696	0.2433633040831789	-0.1229239973530311	0.007465469285610761	0.05434424212115908	-0.05077014002407201	-0.003105477262298224	-0.07225448872601763	-0.001843943164832173	-0.2116952249776828	-0.2116952249776757	-0.01418459240077231	-0.0002419726761551138	-0.05609883747109939	-0.03821901398317967	-0.2278642865406499	0.08762205848672742	-0.009281121672484294	-0.2902404785704429	-0.01415884886428461	-0.01729154386270297	0.2019785304448363	-40.35137996213806	25.29993909692481	-16.56502768293452	2.672281760270267	-539.0230333668038	-28.00798192533163	-0.02397895423472708	1.39914989145775	0.2776506887118598	1.919073983794127	-6.393675389225245	-0.2049763117394683	-1.492507168442909	0.006734325795454454	-5.461451379248869	-5.461451379248287	-0.855624758747715	0.003375443872674155	-0.9393741819974211	-0.8798251256942783	-5.874607369342447e-09	-1.38757642984239e-07	-5.918468720901539e-08	-8.583840343725088e-09	-1.158673402795775e-08	-1.581718440534006e-07	3.273991611032496e-09
1.02	-0.4356059362687735	0.003001104209305671	0.6105550391727206	1.639491749945734	-0.3501352667625643	0.1302378733530439	-0.4362841837234434	1.466940659443138	1.466940659443156	0.04605653320462427	-0.1743575465617421	0.4340354190818876	0.2429368608927058	-0.1087642034867998	0.01027243621597931	0.07353993645756733	-0.1148881904892592	-0.005179257687317787	-0.08731952382889456	-0.001889153480852373	-0.2663681391608202	-0.2663681391608088	-0.0226469403390042	-0.0003173395959791694	-0.065530952427691	-0.04705696147035723	-0.2284136429241955	0.08761529062571503	-0.009308755885463503	-0.2892162319331273	-0.01470541068319166	-0.01722387375772503	0.2023046836834575	-40.48866129062743	25.22802077097848	-16.47752726070039	2.6071427471157	-539.0745565044557	-27.9585979997853	-0.02400013419430104	1.440883647190975	0.284333899012455	1.921354063253498	-6.440125918435555	-0.2144816216543393	-1.536009630795672	-0.02499902074803747	-5.476439523705872	-5.476439523705856	-0.8287806439053129	-0.0317952831317304	-0.9479021507039724	-0.8955912255941875	-6.212932818483405e-09	-1.716531426648564e-07	-7.331184791476358e-08	-1.575764347430805e-08	-1.442853277227413e-08	-1.879573348940801e-07	2.784807234347451e-09
1.03	-0.4366224760902771	0.003118105390852122	0.6113861924183266	1.638022308190639	-0.3501972067479878	0.1292895466741839	-0.436302652047412	1.464003592439988	1.464003592440004	0.04578791255940849	-0.1743608974486731	0.4333326486800825	0.2424224627744515	-0.09455714218560445	0.01313977109403742	0.09267231741951087	-0.1789579327909441	-0.007199293083617856	-0.1023323096480174	-0.001729441290121126	-0.3210350148703111	-0.3210350148703036	-0.03107114754503906	-0.0003469835115198388	-0.07503823673695259	-0.05580787880607756	-0.2288710036960026	0.08761656470220625	-0.009320723428436801	-0.2878529836874696	-0.01530926870630556	-0.01713564752289155	0.2026200747925443	-40.61727960658936	25.12961400959029	-16.36747786871962	2.509868086285787	-538.8296667889819	-27.88027592969512	-0.02402820056165341	1.408609646829409	0.2897242998731021	1.906417357331639	-6.384064886019865	-0.1943302049559643	-1.48189831880736	0.0477168439510472	-5.460275058681247	-5.460275058681875	-0.8483527549829477	0.01229938435209547	-0.9544184996197249	-0.862581338584397	-6.547320371788993e-09	-2.045542033291743e-07	-8.740257882876072e-08	-2.294508292125911e-08	-1.725797461972874e-08	-2.177031587851756e-07	2.284645836940729e-09
